<svg xmlns="http://www.w3.org/2000/svg" xmlns:xlink="http://www.w3.org/1999/xlink" width="2000" zoomAndPan="magnify" viewBox="0 0 1500 1499.999933" height="2000" preserveAspectRatio="xMidYMid meet" version="1.0"><defs><clipPath id="d3597a507d"><path d="M 0 0 L 1500 0 L 1500 1500 L 0 1500 Z M 0 0 " clip-rule="nonzero"/></clipPath><clipPath id="001b72cbbd"><path d="M 750 0 C 335.785156 0 0 335.785156 0 750 C 0 1164.214844 335.785156 1500 750 1500 C 1164.214844 1500 1500 1164.214844 1500 750 C 1500 335.785156 1164.214844 0 750 0 Z M 750 0 " clip-rule="nonzero"/></clipPath><clipPath id="78667416f0"><path d="M 0 0 L 1500 0 L 1500 1500 L 0 1500 Z M 0 0 " clip-rule="nonzero"/></clipPath><clipPath id="d71b42aa70"><path d="M 750 0 C 335.785156 0 0 335.785156 0 750 C 0 1164.214844 335.785156 1500 750 1500 C 1164.214844 1500 1500 1164.214844 1500 750 C 1500 335.785156 1164.214844 0 750 0 Z M 750 0 " clip-rule="nonzero"/></clipPath><clipPath id="c1b60324b7"><rect x="0" width="1500" y="0" height="1500"/></clipPath><clipPath id="7b17d43e5f"><path d="M 264 617 L 765 617 L 765 1259.671875 L 264 1259.671875 Z M 264 617 " clip-rule="nonzero"/></clipPath><clipPath id="44f3fd5289"><rect x="0" width="1500" y="0" height="1500"/></clipPath></defs><g transform="matrix(1, 0, 0, 1, 0, 0.000000000000112861)"><g clip-path="url(#44f3fd5289)"><g clip-path="url(#d3597a507d)"><g clip-path="url(#001b72cbbd)"><g transform="matrix(1, 0, 0, 1, 0, 0.000000000000112861)"><g clip-path="url(#c1b60324b7)"><g clip-path="url(#78667416f0)"><g clip-path="url(#d71b42aa70)"><rect x="-546" width="2592" fill="#344e41" y="-545.999976" height="2591.999885" fill-opacity="1"/></g></g></g></g></g></g><path fill="#dad7cd" d="M 686.890625 821.660156 C 691.167969 714.703125 705.074219 593.839844 740.367188 475.117188 C 741.4375 540.359375 716.835938 702.9375 729.671875 889.042969 C 737.160156 902.945312 743.578125 915.78125 749.996094 929.6875 C 766.039062 894.390625 787.429688 858.023438 813.101562 821.660156 C 845.1875 777.804688 880.484375 741.441406 916.847656 711.492188 C 918.988281 691.171875 921.125 670.847656 921.125 649.457031 C 923.265625 445.167969 819.515625 305.054688 772.457031 251.574219 C 762.828125 240.878906 746.785156 240.878906 738.230469 251.574219 C 690.097656 305.054688 579.933594 448.378906 578.863281 658.015625 C 578.863281 676.195312 579.933594 693.308594 581 710.421875 C 618.4375 740.371094 653.734375 776.738281 686.890625 821.660156 Z M 686.890625 821.660156 " fill-opacity="1" fill-rule="nonzero"/><path fill="#dad7cd" d="M 1231.304688 634.484375 C 1230.234375 622.71875 1219.539062 615.230469 1207.773438 617.371094 C 1141.460938 631.273438 970.328125 680.476562 848.394531 847.328125 C 814.167969 894.390625 789.570312 941.453125 772.457031 987.441406 C 785.289062 1024.878906 793.847656 1060.175781 799.195312 1094.402344 C 868.71875 996 961.769531 885.832031 1078.355469 795.988281 C 1038.78125 853.746094 907.222656 985.304688 806.683594 1162.855469 C 807.75 1172.480469 807.75 1182.105469 807.75 1190.664062 L 808.820312 1247.351562 C 891.179688 1224.890625 1022.738281 1169.269531 1122.207031 1035.574219 C 1243.070312 874.066406 1238.789062 700.796875 1231.304688 634.484375 Z M 1231.304688 634.484375 " fill-opacity="1" fill-rule="nonzero"/><g clip-path="url(#7b17d43e5f)"><path fill="#dad7cd" d="M 764.96875 1191.730469 C 762.828125 1109.375 744.648438 975.679688 651.59375 847.328125 C 528.59375 680.476562 357.460938 631.273438 291.148438 617.371094 C 279.382812 615.230469 268.6875 622.71875 267.617188 634.484375 C 261.199219 700.796875 256.921875 874.066406 376.710938 1035.574219 C 500.785156 1203.496094 675.125 1247.351562 740.367188 1259.117188 C 638.757812 1032.367188 466.558594 863.371094 419.496094 795.988281 C 577.792969 917.921875 693.308594 1076.21875 764.96875 1191.730469 Z M 764.96875 1191.730469 " fill-opacity="1" fill-rule="nonzero"/></g></g></g></svg>